<svg width="24" height="24" viewBox="0 0 24 24" fill="none" xmlns="http://www.w3.org/2000/svg">
<path d="M16 7.9988C18.2089 7.9988 20 6.20648 20 4C20 1.79232 18.2089 0 16 0H12H8C5.79112 0 4 1.79232 4 4C4 6.20648 5.79112 7.9988 8 7.9988C5.79112 7.9988 4 9.79112 4 12C4 14.2077 5.79112 16 8 16C5.79112 16 4 17.7923 4 20C4 22.2089 5.79112 24 8 24C10.2089 24 12 22.2065 12 19.9988V15.9988V11.9988V7.9988H16Z" fill="black"/>
<path d="M16 15.9988C18.2091 15.9988 20 14.208 20 11.9988C20 9.7897 18.2091 7.99884 16 7.99884C13.7909 7.99884 12 9.7897 12 11.9988C12 14.208 13.7909 15.9988 16 15.9988Z" fill="black"/>
</svg>
