<svg width="24" height="24" viewBox="0 0 24 24" fill="none" xmlns="http://www.w3.org/2000/svg">
<path d="M22.6667 0H1.33333C0.596 0 0 0.597333 0 1.33333V22.6667C0 23.4027 0.596 24 1.33333 24H22.6667C23.404 24 24 23.4027 24 22.6667V1.33333C24 0.597333 23.404 0 22.6667 0ZM7.11867 20.4493H3.556V8.996H7.11867V20.4493ZM5.33733 7.432C4.196 7.432 3.27333 6.50667 3.27333 5.368C3.27333 4.22933 4.19467 3.304 5.33733 3.304C6.476 3.304 7.40133 4.228 7.40133 5.368C7.40133 6.508 6.476 7.432 5.33733 7.432ZM20.4507 20.4493H16.892V14.88C16.892 13.552 16.868 11.844 15.0413 11.844C13.188 11.844 12.9067 13.292 12.9067 14.7867V20.4507H9.35067V8.99733H12.764V10.5627H12.8133C13.2867 9.66267 14.4493 8.71333 16.1787 8.71333C19.784 8.71333 20.4493 11.084 20.4493 14.1693L20.4507 20.4493Z" fill="black"/>
</svg>
